<svg width="250" height="232" viewBox="0 0 250 232" fill="none" xmlns="http://www.w3.org/2000/svg">
<g clip-path="url(#clip0_152_495)">
<path d="M250 116.439C250 180.192 190.942 231.875 118.09 231.875C45.2388 231.875 0 180.192 0 116.439C0 52.686 14.0714 0 86.9231 0C159.775 0 250 52.686 250 116.439Z" fill="#EBB459"/>
<path d="M153.333 153.175C141.475 167.291 125.31 172.026 107.144 171.619C98.4914 171.426 90.1111 169.7 82.2489 165.911C74.6227 162.248 68.3282 156.299 64.2421 148.891C57.2222 136.527 54.7263 123.349 57.323 109.31C57.7896 106.789 58.5211 104.71 61.1654 103.028C69.0414 98.0187 77.7864 95.7616 86.7272 94.396C102.212 92.0305 117.846 91.3014 133.449 93.035C141.274 94.0014 149.041 95.3874 156.717 97.187C162.81 98.5387 163.064 99.1867 164.07 105.003C166.301 104.162 168.475 103.071 170.773 102.527C177.872 100.846 185.032 103.824 189.391 110.15C196.757 120.843 197.274 140.209 181.113 151.261C174.962 155.467 168.276 158.061 160.685 156.26C158.246 155.682 155.996 154.32 153.333 153.175ZM62.6748 113.613C62.0769 125.706 65.3791 137.672 72.095 147.748C75.4822 153.096 80.4433 157.264 86.296 159.677C103.025 166.434 119.754 166.619 136.188 158.672C142.455 155.729 147.563 150.783 150.708 144.615C156.111 134.079 157.282 122.778 156.884 111.025C154.462 111.9 152.279 113.054 149.964 113.46C142.661 114.735 135.336 116.416 127.972 116.7C106.199 117.534 84.4023 117.767 62.6748 113.613ZM66.7362 107.137L66.8765 108.078C69.2194 108.474 71.5513 109.13 73.9057 109.223C89.9911 109.861 106.075 110.637 122.17 110.836C130.728 110.941 139.332 110.185 147.629 107.677C149.279 107.169 150.862 106.462 152.342 105.572C152.667 105.327 152.929 105.009 153.106 104.642C153.283 104.276 153.37 103.872 153.359 103.466C153.217 103.09 152.991 102.753 152.699 102.478C152.407 102.203 152.056 101.998 151.673 101.879C149.18 101.171 146.654 100.381 144.094 100.155C136.323 99.4696 128.537 98.861 120.744 98.5364C105.429 97.8988 90.3 99.1966 75.5907 103.796C72.583 104.736 69.6842 106.014 66.7362 107.137ZM163.734 113.752C164.898 113.412 165.513 113.206 166.142 113.053C172.493 111.502 178.72 114.451 180.944 120.162C182.343 123.797 182.566 127.78 181.581 131.548C178.964 142.077 168.559 148.3 157.547 145.985L156.573 148.249C160.066 148.702 163.347 149.778 166.454 149.405C175.11 148.362 181.293 143.314 184.512 135.383C187.633 127.699 186.746 119.956 181.924 113.08C177.736 107.112 167.758 107.308 163.734 113.752ZM160.535 140.353C170.355 141.647 178.623 131.521 175.321 121.944C173.961 117.998 167.75 116.198 164.656 118.917C164.151 119.468 163.831 120.162 163.742 120.904C162.65 127.322 161.616 133.75 160.535 140.353Z" fill="#282625"/>
<path d="M119.26 80.8152C119.138 84.293 118.305 86.9865 116.097 88.8906C115.582 89.2625 114.999 89.529 114.38 89.675C113.762 89.821 113.12 89.8436 112.493 89.7414C110.817 89.429 110.709 87.6612 111.164 86.4301C112.762 82.1037 111.898 78.0712 110.738 73.779C109.597 69.5621 111.015 65.4073 113.35 61.6884C114.219 60.3066 115.455 59.5594 117.002 60.3385C118.484 61.0839 118.509 62.5556 117.903 63.8673C115.912 68.1942 116.086 72.3722 118.204 76.6308C118.913 78.0503 119.012 79.7718 119.26 80.8152Z" fill="#282625"/>
<path d="M83.2197 89.9264C83.2695 89.5176 83.3895 89.1205 83.5744 88.7526C85.5956 85.7727 84.7517 82.9562 83.3362 80.032C80.4607 74.0896 81.3249 68.6503 85.7643 63.7901C86.2796 63.2256 86.8337 62.4512 87.4858 62.3098C88.6033 62.0686 90.0942 61.8188 90.9184 62.3555C92.1704 63.167 91.5258 64.4614 90.7642 65.6276C89.6802 67.3239 88.708 69.0891 87.8539 70.9121C86.7207 73.2706 87.3455 75.5584 88.2017 77.8978C89.1785 80.289 89.8812 82.7833 90.2965 85.3328C90.6819 88.4738 88.8624 91.2867 86.5167 92.2037C84.5192 92.9833 83.1351 92.118 83.2197 89.9264Z" fill="#282625"/>
<path d="M127.843 78.9334C127.276 76.8096 126.831 74.7427 126.169 72.7482C124.831 68.7157 125.971 65.155 128.082 61.7641C128.978 60.3237 130.318 59.4178 131.982 60.2634C133.733 61.1538 133.132 62.7176 132.504 64.0514C131.833 65.388 131.505 66.8704 131.549 68.3652C131.593 69.8601 132.008 71.3206 132.756 72.6155C135.084 77.0705 135.207 81.591 131.681 85.5262C130.54 86.8013 128.771 87.6789 127.121 88.2817C125.817 88.7588 124.851 88.0499 125.416 86.3626C126.236 83.9159 127.02 81.4577 127.843 78.9334Z" fill="#282625"/>
<path d="M103.442 62.4942C103.195 63.3104 102.906 64.1136 102.578 64.9009C101.02 68.1259 101.382 71.1997 103.08 74.2689C104.733 77.2586 105.944 80.4849 105.417 83.9152C105.053 85.8594 104.249 87.6944 103.066 89.2797C102.556 89.988 100.727 90.2986 99.796 89.9613C99.148 89.7294 98.5278 87.9749 98.726 87.0863C99.7206 82.6336 98.8674 78.6341 96.9483 74.5419C94.792 69.9437 95.84 65.4741 99.1202 61.6711C99.7183 60.9756 101.085 60.6922 102.086 60.7119C102.561 60.7212 103.014 61.8943 103.442 62.4942Z" fill="#282625"/>
</g>
<defs>
<clipPath id="clip0_152_495">
<rect width="250" height="231.875" fill="white"/>
</clipPath>
</defs>
</svg>
